PathFileType	4	(X/Y/Z)	C:/Users/beibeiliu/ov580/test_trc/capture2\sequence.38_training_dense_right.trc
DataRate	CameraRate	NumFrames	NumMarkers	Units	OrigDataRate	OrigDataStartFrame	OrigNumFrames
120	120	12	19	mm	120	51	400
Frame#	Time	ThumbCMC			ThumbMCP			ThumbIP			ThumbTip			IndexMCP			IndexPIP			IndexTip			MiddleMCP			MiddlePIP			MiddleTip			RingMCP			RingPIP			RingTip			PinkyMCP			PinkyPIP			PinkyTip			BackHand1			BackHand2			BackHand3	
		X0	Y0	Z0	X1	Y1	Z1	X2	Y2	Z2	X3	Y3	Z3	X4	Y4	Z4	X5	Y5	Z5	X6	Y6	Z6	X7	Y7	Z7	X8	Y8	Z8	X9	Y9	Z9	X10	Y10	Z10	X11	Y11	Z11	X12	Y12	Z12	X13	Y13	Z13	X14	Y14	Z14	X15	Y15	Z15	X16	Y16	Z16	X17	Y17	Z17	X18	Y18	Z18	
50	0.416667	173.616	-26.6711	65.1455	167.239	-3.03742	42.9935	162.738	4.96576	19.6527	152.377	5.1288	-6.20968	170.495	-42.8955	-5.1194	160.335	-20.9399	-24.1604	143.665	3.28503	-22.5087	154.352	-61.7713	-10.7005	147.917	-49.3604	-34.3797	130.614	-24.665	-50.5294	132.085	-72.8207	-1.14417	127.879	-67.1736	-27.4943	118.187	-47.3282	-52.6312	111.52	-70.9904	12.1214	104.148	-72.1373	-10.2782	89.6543	-73.1594	-30.9882	139.051	-76.9011	46.3766	139.53	-79.2777	76.0212	165.585	-67.2289	63.9662	
51	0.425	174.289	-25.9716	69.0954	165.99	-6.56724	41.1963	160.765	2.64111	19.676	151.383	3.50598	-5.20303	168.332	-45.1406	-2.17515	158.606	-24.5557	-21.7233	144.983	4.44955	-22.1458	153.245	-62.4793	-5.4851	147.422	-50.4911	-33.5601	135.465	-21.6768	-51.872	130.947	-72.8428	0.704025	129.732	-65.1006	-30.5743	118.695	-47.7287	-52.499	111.44	-71.7001	11.2011	100.027	-72.1028	-6.41238	91.625	-74.3165	-34.2216	138.275	-77.6322	47.1302	135.808	-80.2705	78.193	168.405	-67.9821	63.2313	
52	0.433333	174.413	-27.0414	67.7157	166.299	-4.06988	43.1916	159.947	2.26541	18.5187	153.324	6.47872	-3.31267	166.696	-42.6006	-5.11759	159.652	-20.0174	-23.3422	139.035	5.44122	-19.5144	151.768	-63.245	-8.65224	148.311	-49.3813	-33.5224	131.734	-24.4396	-51.0747	134.274	-71.8289	-1.85539	128.34	-65.9612	-28.2073	119.178	-47.9729	-52.3003	112.225	-71.3259	13.2053	102.841	-72.2753	-8.52044	93.5081	-74.6331	-31.4696	136.202	-78.837	49.1946	139.776	-77.7348	81.2192	165.549	-67.1703	63.0868	
53	0.441667	173.474	-26.56	68.8308	167.361	-2.6419	44.9395	161.996	5.51211	21.9795	153.586	7.85086	-5.69478	168.407	-43.0529	-1.79074	158.072	-24.0647	-21.5165	140.095	1.3154	-19.5684	154.741	-61.1206	-6.34905	145.069	-48.514	-36.594	131.531	-26.533	-51.8264	132.339	-72.7606	-2.19307	126.831	-67.2001	-27.2174	122.914	-46.799	-52.195	110.07	-71.7594	15.0478	99.3051	-72.5545	-5.29221	95.097	-75.1662	-29.4323	137.373	-78.6615	51.9098	140.04	-78.7071	79.8589	169.629	-66.8604	62.758	
54	0.45	170.93	-27.2158	69.0764	164.95	-4.79658	47.6325	162.374	6.03365	20.1772	156.013	10.953	0.567482	167.482	-41.941	-5.81672	158.3	-19.3744	-24.26	141.288	2.31849	-21.5344	153.628	-60.7823	-8.65523	145.318	-47.7176	-37.004	135.503	-26.7199	-52.4743	135.044	-70.2745	-2.61512	125.51	-67.3023	-27.2865	120.744	-50.4138	-50.153	110.783	-72.3766	11.1525	101.123	-71.5937	-9.49273	90.7664	-73.8893	-34.6696	139.827	-75.8883	48.2285	139.089	-78.6516	79.8486	169.87	-66.1733	59.7324	
55	0.458333	170.916	-26.3686	67.7626	165.553	-3.85575	44.6517	163.786	9.85353	24.1571	154.997	13.6251	-1.04143	170.734	-41.5238	-4.48794	159.211	-23.9067	-25.3864	142.849	-0.996963	-26.4782	153.603	-60.3789	-7.72396	146.919	-49.2915	-35.1793	132.21	-25.6602	-55.1726	132.555	-70.6496	0.710362	130.764	-63.46	-30.0048	118.127	-50.2094	-52.4072	112.481	-70.8456	13.7013	99.5015	-71.7442	-9.49149	95.0302	-71.6633	-33.0533	139.439	-77.085	47.7534	140.068	-76.995	79.8773	171.699	-62.8595	60.1362	
56	0.466667	172.032	-24.7361	67.7271	164.839	0.355567	46.4894	162.048	11.4623	23.5072	155.222	18.4674	1.52696	170.238	-42.6709	-4.29346	165.144	-26.9498	-25.4601	145.635	-1.77736	-32.9058	155.018	-60.2941	-6.25461	146.83	-52.0818	-32.8717	135.005	-29.4268	-54.3514	137.227	-68.1787	1.22813	127.852	-66.3709	-28.2219	118.85	-51.9068	-50.3698	115.722	-70.1141	12.5095	101.552	-71.4191	-8.39892	91.4793	-68.2436	-32.6149	139.375	-75.7692	50.8424	142.48	-77.492	79.2303	169.397	-62.9091	60.5056	
57	0.475	172.138	-21.7774	69.3654	163.631	3.17209	45.2836	159.567	17.5251	21.6847	151.24	19.9883	5.16735	174.2	-40.7919	-1.63297	164.857	-27.4725	-27.3558	145.866	-4.7087	-36.861	154.017	-59.9699	-5.92479	148.31	-50.5964	-35.7797	134.063	-32.3509	-54.6929	135.751	-68.8432	2.00907	130.868	-66.1424	-26.0777	125.106	-50.6887	-51.4304	113.957	-72.0772	11.5944	107.873	-68.7646	-9.12041	96.1637	-65.2313	-36.4361	144.684	-73.8948	50.9325	143.602	-76.7758	76.7387	170.351	-61.7246	61.0954	
58	0.483333	171.193	-19.745	66.4157	160.014	6.08811	49.0146	155.963	20.5652	26.5592	143.774	21.8766	3.56012	172.443	-38.9432	-1.60228	167.426	-23.6507	-28.7116	150.031	-5.43868	-40.5642	155.983	-57.5056	-4.46679	146.21	-50.286	-36.5187	136.584	-29.3987	-58.78	141.344	-65.2274	0.683357	130.144	-63.873	-27.8526	125.187	-51.9246	-50.4155	116.118	-69.7556	12.3912	107.468	-66.9949	-10.5043	97.6956	-63.1283	-35.0547	142.533	-72.4408	51.6901	145.361	-75.6303	81.4359	172.413	-59.2994	62.721	
59	0.491667	169.644	-18.5319	66.9804	158.409	9.44707	48.0344	146.936	15.9827	23.3271	137.402	21.4503	4.90217	175.864	-34.9466	-2.23445	166.261	-24.4808	-27.3785	147.025	-7.64387	-43.0559	156.816	-55.5228	-8.82087	148.982	-48.9187	-36.674	137.093	-33.3505	-57.6745	139.549	-66.3244	-0.77084	131.592	-64.039	-28.2448	122.678	-52.2329	-51.0568	117.513	-68.6396	13.3822	107.527	-65.6068	-9.8592	101.032	-56.8776	-32.8164	145.605	-70.6354	45.9645	147.973	-75.1184	79.6466	173.464	-58.7988	62.284	
60	0.5	171.039	-14.3275	68.4341	153.313	5.77551	47.0437	144.105	18.9202	23.9826	131.967	23.1158	2.27301	173.905	-35.4417	-5.89113	166.328	-19.7096	-30.8107	149.714	-2.86679	-46.1252	159.678	-53.5495	-5.95316	153.272	-46.4698	-34.932	133.911	-31.448	-61.8228	139.625	-65.4187	-4.41602	132.226	-61.3726	-28.1864	122.755	-49.5458	-53.2911	117.477	-67.0704	12.1444	112.739	-59.3292	-14.3624	99.3929	-52.6669	-33.969	145.901	-71.9354	46.6545	148.88	-74.7702	77.0844	174.897	-57.22	57.6124	
61	0.508333	170.033	-13.7087	63.5168	152.436	11.7887	47.4147	140.163	21.394	21.9371	127.054	17.3956	3.19651	176.21	-33.1377	-2.31388	164.19	-21.1287	-30.7188	152.252	-3.40599	-44.3022	156.373	-53.4075	-5.87246	153.06	-45.0882	-37.6106	139.298	-30.2166	-60.5181	142.909	-60.9957	-3.20397	135.82	-59.6269	-27.277	124.81	-48.9586	-52.4599	122.301	-63.4153	7.53581	111.938	-58.1944	-12.3076	103.801	-41.5176	-38.433	145.736	-69.0523	45.0818	149.338	-72.6832	75.3526	177.83	-53.2493	58.1797	
